<?xml version="1.0" encoding="UTF-8" standalone="no"?>
<!-- Created with Inkscape (http://www.inkscape.org/) -->

<svg
   width="45.856873mm"
   height="42.119942mm"
   viewBox="0 0 45.856873 42.119942"
   version="1.1"
   id="svg5"
   xml:space="preserve"
   xmlns:inkscape="http://www.inkscape.org/namespaces/inkscape"
   xmlns:sodipodi="http://sodipodi.sourceforge.net/DTD/sodipodi-0.dtd"
   xmlns="http://www.w3.org/2000/svg"
   xmlns:svg="http://www.w3.org/2000/svg"><sodipodi:namedview
     id="namedview7"
     pagecolor="#ffffff"
     bordercolor="#666666"
     borderopacity="1.0"
     inkscape:showpageshadow="2"
     inkscape:pageopacity="0.0"
     inkscape:pagecheckerboard="0"
     inkscape:deskcolor="#d1d1d1"
     inkscape:document-units="mm"
     showgrid="false" /><defs
     id="defs2" /><g
     inkscape:label="Capa 1"
     inkscape:groupmode="layer"
     id="layer1"
     transform="translate(-74.51214,-112.28277)"><g
       id="g91248"
       transform="translate(-7.1636157,49.461604)"><path
         style="fill:#32a0cd;stroke-width:0.264583"
         d="m 111.78992,104.92216 -1.05833,-0.0189 -0.26459,-0.0924 -0.26458,-0.0924 -2.83145,-0.17585 -2.83146,-0.17584 -1.4676,-2.66576 -1.46761,-2.665764 0.11905,-0.119055 0.11906,-0.119055 7.5118,0.315664 7.51181,0.315661 1.03383,-0.192034 1.03382,-0.192035 1.19063,-0.504743 1.19062,-0.504743 1.15178,-1.108961 1.15179,-1.108959 -0.1862,0.926042 -0.18619,0.926041 -0.80527,1.657295 -0.80527,1.657296 -1.05372,0.95197 -1.05371,0.95197 -1.62015,0.7525 -1.62014,0.7525 -1.71979,0.27426 -1.7198,0.27425 -1.05833,-0.0189 z m -10.71562,-0.83225 h -0.92605 l 0.46302,-0.121 0.46303,-0.121 0.46302,0.121 0.46302,0.121 z m -7.937505,-0.28248 h -1.455208 l 0.727604,-0.11023 0.727604,-0.11022 0.727604,0.11022 0.727604,0.11023 z m 3.042708,0.0793 h -0.132291 v -0.13229 -0.13229 h 0.132291 0.132292 v 0.13229 0.13229 z m 5.556247,-0.26458 h -0.13229 v -0.13229 -0.1323 h 0.13229 0.1323 v 0.1323 0.13229 z m -13.493747,-0.26459 h -0.132291 v -0.13229 -0.13229 h 0.132291 0.132292 v 0.13229 0.13229 z m 5.820834,0 h -0.132292 v -0.13229 -0.13229 h 0.132292 0.132291 v 0.13229 0.13229 z m 1.5875,0 h -0.132292 v -0.13229 -0.13229 h 0.132292 0.132291 v 0.13229 0.13229 z m -1.852084,-0.52916 h -0.132291 v -0.13229 -0.1323 h 0.132291 0.132292 v 0.1323 0.13229 z m 1.5875,0 h -0.132291 v -0.13229 -0.1323 h 0.132291 0.132292 v 0.1323 0.13229 z m -1.852083,-0.52917 h -0.132292 v -0.13229 -0.13229 h 0.132292 0.132292 v 0.13229 0.13229 z m 1.5875,0 h -0.132292 v -0.13229 -0.13229 h 0.132292 0.132292 v 0.13229 0.13229 z m 5.82083,0 h -0.13229 v -0.13229 -0.13229 h 0.13229 0.1323 v 0.13229 0.13229 z m -13.493747,-0.26458 h -0.132291 v -0.13229 -0.1323 h 0.132291 0.132292 v 0.1323 0.13229 z m 7.408334,-0.26459 h -0.132292 v -0.13229 -0.13229 h 0.132292 0.132291 v 0.13229 0.13229 z m 5.820833,0 h -0.13229 v -0.13229 -0.13229 h 0.13229 0.13229 v 0.13229 0.13229 z m -13.49375,-0.26458 h -0.132292 v -0.13229 -0.13229 h 0.132292 0.132292 v 0.13229 0.13229 z m 5.820833,0 h -0.132291 v -0.13229 -0.13229 h 0.132291 0.132292 v 0.13229 0.13229 z m 7.408337,-0.26458 h -0.13229 v -0.13229 -0.1323 h 0.13229 0.13229 v 0.1323 0.13229 z m -13.493753,-0.26459 h -0.132292 v -0.13229 -0.13229 h 0.132292 0.132291 v 0.13229 0.13229 z m 5.820833,0 h -0.132292 v -0.13229 -0.13229 h 0.132292 0.132292 v 0.13229 0.13229 z m 1.5875,0 h -0.132292 v -0.13229 -0.13229 h 0.132292 0.132292 v 0.13229 0.13229 z m 5.82083,-0.26458 h -0.13229 v -0.13229 -0.13229 h 0.13229 0.1323 v 0.13229 0.13229 z m -13.493747,-0.26458 h -0.132291 v -0.13229 -0.1323 h 0.132291 0.132292 v 0.1323 0.13229 z m 5.820834,0 h -0.132292 v -0.13229 -0.1323 h 0.132292 0.132291 v 0.1323 0.13229 z m 1.5875,0 h -0.132292 v -0.13229 -0.1323 h 0.132292 0.132291 v 0.1323 0.13229 z m -1.852084,-0.52917 h -0.132291 v -0.132291 -0.132292 h 0.132291 0.132292 v 0.132292 0.132291 z m 1.5875,0 h -0.132291 v -0.132291 -0.132292 h 0.132291 0.132292 v 0.132292 0.132291 z m 5.820834,0 h -0.132292 v -0.132291 -0.132292 h 0.132292 0.132291 v 0.132292 0.132291 z m -13.49375,-0.264583 h -0.132292 v -0.132292 -0.132291 h 0.132292 0.132291 v 0.132291 0.132292 z M 91.94617,99.388794 H 91.813878 V 99.256502 99.12421 h 0.132292 0.132292 v 0.132292 0.132292 z m 1.5875,0 H 93.401378 V 99.256502 99.12421 h 0.132292 0.132292 v 0.132292 0.132292 z m 5.820833,0 H 99.222212 V 99.256502 99.12421 h 0.132291 0.132292 v 0.132292 0.132292 z M 85.860753,99.12421 h -0.132292 v -0.132291 -0.132292 h 0.132292 0.132292 v 0.132292 0.132291 z M 99.08992,98.859627 h -0.132292 v -0.132292 -0.132291 h 0.132292 0.132292 v 0.132291 0.132292 z M 85.59617,98.595044 H 85.463878 V 98.462752 98.33046 h 0.132292 0.132291 v 0.132292 0.132292 z m 5.820833,0 H 91.284712 V 98.462752 98.33046 h 0.132291 0.132292 v 0.132292 0.132292 z m 7.408334,-0.264584 h -0.132292 v -0.132291 -0.132292 h 0.132292 0.132291 v 0.132292 0.132291 z M 85.331586,98.065877 h -0.132291 v -0.132292 -0.132291 h 0.132291 0.132292 v 0.132291 0.132292 z m 5.820834,0 h -0.132292 v -0.132292 -0.132291 h 0.132292 0.132292 v 0.132291 0.132292 z m 1.5875,0 h -0.132292 v -0.132292 -0.132291 h 0.132292 0.132292 v 0.132291 0.132292 z m 5.820833,-0.264583 H 98.428462 V 97.669002 97.53671 h 0.132291 0.132292 v 0.132292 0.132292 z m 15.874997,-0.129175 -2.91041,0.07646 -5.35056,-0.304369 -5.35055,-0.304372 -0.36412,-0.396875 -0.36411,-0.396875 -1.251093,-2.350407 -1.25109,-2.350408 6.833473,0.233741 6.83346,0.233741 h 4.7625 4.7625 l 1.47809,-0.693161 1.47809,-0.693158 0.96931,-0.969306 0.96931,-0.969307 v 0.113242 0.113242 l -0.52481,1.681514 -0.5248,1.681517 -1.00378,1.322917 -1.00378,1.322917 -1.27575,0.85743 -1.27575,0.857427 -1.36285,0.428818 -1.36286,0.428821 z M 85.067003,97.53671 h -0.132292 v -0.132291 -0.132292 h 0.132292 0.132292 v 0.132292 0.132291 z m 5.820834,0 h -0.132292 v -0.132291 -0.132292 h 0.132292 0.132291 v 0.132292 0.132291 z m 1.5875,0 h -0.132292 v -0.132291 -0.132292 h 0.132292 0.132291 v 0.132292 0.132291 z M 90.623253,97.007544 H 90.490962 V 96.875252 96.74296 h 0.132291 0.132292 v 0.132292 0.132292 z m 1.5875,0 H 92.078462 V 96.875252 96.74296 h 0.132291 0.132292 v 0.132292 0.132292 z m 5.820834,0 H 97.899295 V 96.875252 96.74296 h 0.132292 0.132291 v 0.132292 0.132292 z M 84.537836,96.74296 h -0.132291 v -0.132291 -0.132292 h 0.132291 0.132292 v 0.132292 0.132291 z m 5.820834,-0.264583 h -0.132292 v -0.132292 -0.132291 h 0.132292 0.132292 v 0.132291 0.132292 z m 7.408333,0 h -0.132291 v -0.132292 -0.132291 h 0.132291 0.132292 v 0.132291 0.132292 z M 84.273253,96.213794 H 84.140961 V 96.081502 95.94921 h 0.132292 0.132292 v 0.132292 0.132292 z M 97.50242,95.94921 h -0.132292 v -0.132291 -0.132292 h 0.132292 0.132292 v 0.132292 0.132291 z M 84.00867,95.684627 h -0.132292 v -0.132292 -0.132291 h 0.132292 0.132291 v 0.132291 0.132292 z m 5.820833,0 h -0.132291 v -0.132292 -0.132291 h 0.132291 0.132292 v 0.132291 0.132292 z m 7.408334,-0.264583 H 97.105545 V 95.287752 95.15546 h 0.132292 0.132291 v 0.132292 0.132292 z M 89.56492,95.15546 h -0.132292 v -0.132291 -0.132292 h 0.132292 0.132292 v 0.132292 0.132291 z m 1.5875,0 h -0.132292 v -0.132291 -0.132292 h 0.132292 0.132292 v 0.132292 0.132291 z M 83.479503,94.626294 H 83.347211 V 94.494002 94.36171 h 0.132292 0.132292 v 0.132292 0.132292 z m 5.820834,0 H 89.168045 V 94.494002 94.36171 h 0.132292 0.132291 v 0.132292 0.132292 z m 1.5875,0 H 90.755545 V 94.494002 94.36171 h 0.132292 0.132291 v 0.132292 0.132292 z m 5.820833,0 H 96.576378 V 94.494002 94.36171 h 0.132292 0.132292 v 0.132292 0.132292 z M 83.21492,94.097127 h -0.132292 v -0.132292 -0.132291 h 0.132292 0.132291 v 0.132291 0.132292 z m 5.820833,0 h -0.132291 v -0.132292 -0.132291 h 0.132291 0.132292 v 0.132291 0.132292 z m 1.5875,0 h -0.132291 v -0.132292 -0.132291 h 0.132291 0.132292 v 0.132291 0.132292 z m 5.820834,0 h -0.132292 v -0.132292 -0.132291 h 0.132292 0.132291 v 0.132291 0.132292 z M 90.35867,93.56796 h -0.132292 v -0.132291 -0.132292 h 0.132292 0.132292 v 0.132292 0.132291 z m 5.820833,0 h -0.132291 v -0.132291 -0.132292 h 0.132291 0.132292 v 0.132292 0.132291 z M 82.950336,93.303377 h -0.132291 v -0.132292 -0.132291 h 0.132291 0.132292 v 0.132291 0.132292 z M 95.91492,93.038794 H 95.782628 V 92.906502 92.77421 h 0.132292 0.132292 v 0.132292 0.132292 z M 82.72985,92.686017 82.553461,92.862404 V 92.509627 92.15685 l 0.176389,0.176387 0.176389,0.17639 z m 5.512153,0.08819 h -0.132291 v -0.132291 -0.132292 h 0.132291 0.132292 v 0.132292 0.132291 z m 7.423949,-0.264583 h -0.116677 l -0.188787,-0.305464 -0.188787,-0.305464 0.305464,0.188788 0.305463,0.188785 v 0.116679 0.116676 z M 87.97742,92.245044 H 87.845128 V 92.112752 91.98046 h 0.132292 0.132292 v 0.132292 0.132292 z m 1.5875,0 H 89.432628 V 92.112752 91.98046 h 0.132292 0.132292 v 0.132292 0.132292 z m -7.099653,-0.617361 -0.176389,0.176388 v -0.352777 -0.352777 l 0.176389,0.176387 0.176389,0.17639 z m 5.24757,0.08819 H 87.580545 V 91.583581 91.45129 h 0.132292 0.132291 v 0.132291 0.132292 z m 1.5875,0 H 89.168045 V 91.583581 91.45129 h 0.132292 0.132291 v 0.132291 0.132292 z m 5.820833,0 H 94.988878 V 91.583581 91.45129 h 0.132292 0.132292 v 0.132291 0.132292 z M 87.448253,91.18671 h -0.132291 v -0.132291 -0.132292 h 0.132291 0.132292 v 0.132292 0.132291 z m 7.408334,0 h -0.132292 v -0.132291 -0.132292 h 0.132292 0.132291 v 0.132292 0.132291 z m 22.489583,-0.465079 -1.5875,0.107609 -1.45521,-0.09235 -1.45521,-0.09235 -8.04118,-0.374994 -8.041189,-0.374994 -0.22778,-0.22778 -0.227781,-0.227779 -1.318892,-2.480816 -1.318893,-2.480813 0.0817,-0.0817 0.0817,-0.0817 6.463445,0.259877 6.46346,0.259876 6.95919,0.281959 6.9592,0.281956 1.50747,-0.311084 1.50747,-0.311082 0.98483,-0.500168 0.98483,-0.500168 0.9334,-0.819534 0.9334,-0.819534 v 0.497893 0.497893 l -0.89499,1.84462 -0.895,1.844619 -1.02323,0.949185 -1.02324,0.949185 -0.99731,0.566266 -0.9973,0.566267 -1.38395,0.381016 -1.38394,0.381018 z M 94.592003,90.657544 H 94.459712 V 90.525252 90.39296 h 0.132291 0.132292 v 0.132292 0.132292 z M 86.919087,90.39296 h -0.132292 v -0.132291 -0.132292 h 0.132292 0.132291 v 0.132292 0.132291 z m 7.408333,-0.264583 h -0.132292 v -0.132292 -0.132291 h 0.132292 0.132292 v 0.132291 0.132292 z M 86.654503,89.863794 H 86.522212 V 89.731502 89.59921 h 0.132291 0.132292 v 0.132292 0.132292 z m 1.5875,0 H 88.109712 V 89.731502 89.59921 h 0.132291 0.132292 v 0.132292 0.132292 z m 5.836449,-0.264584 h -0.116677 l -0.188787,-0.305464 -0.188787,-0.305464 0.305464,0.188788 0.305463,0.188786 v 0.116678 0.116676 z M 86.38992,89.334627 h -0.132292 v -0.132292 -0.132291 h 0.132292 0.132292 v 0.132291 0.132292 z m 1.5875,0 h -0.132292 v -0.132292 -0.132291 h 0.132292 0.132292 v 0.132291 0.132292 z M 86.125337,88.80546 h -0.132292 v -0.132291 -0.132292 h 0.132292 0.132291 v 0.132292 0.132291 z m 1.5875,0 h -0.132292 v -0.132291 -0.132292 h 0.132292 0.132291 v 0.132292 0.132291 z m 5.820833,0 h -0.132292 v -0.132291 -0.132292 h 0.132292 0.132292 v 0.132292 0.132291 z m -11.1125,-0.264583 h -0.132292 v -0.132292 -0.132291 h 0.132292 0.132291 v 0.132291 0.132292 z m 3.439583,-0.264583 H 85.728461 V 88.144002 88.01171 h 0.132292 0.132292 v 0.132292 0.132292 z m 1.5875,0 H 87.315962 V 88.144002 88.01171 h 0.132291 0.132292 v 0.132292 0.132292 z m 5.820834,0 H 93.136795 V 88.144002 88.01171 h 0.132292 0.132291 v 0.132292 0.132292 z M 82.685753,87.747127 h -0.132292 v -0.132292 -0.132291 h 0.132292 0.132292 v 0.132291 0.132292 z m 10.31875,0 h -0.132291 v -0.132292 -0.132291 h 0.132291 0.132292 v 0.132291 0.132292 z M 85.331586,87.482544 H 85.199295 V 87.350252 87.21796 h 0.132291 0.132292 v 0.132292 0.132292 z m 1.587501,0 H 86.786795 V 87.350252 87.21796 h 0.132292 0.132291 v 0.132292 0.132292 z m -1.852084,-0.529167 h -0.132292 v -0.132292 -0.132291 h 0.132292 0.132292 v 0.132291 0.132292 z m 1.5875,0 h -0.132291 v -0.132292 -0.132291 h 0.132291 0.132292 v 0.132291 0.132292 z M 83.21492,86.688794 H 83.082628 V 86.556502 86.42421 h 0.132292 0.132291 v 0.132292 0.132292 z m 1.5875,-0.264584 h -0.132292 v -0.132291 -0.132292 h 0.132292 0.132291 v 0.132292 0.132291 z m 1.5875,0 h -0.132292 v -0.132291 -0.132292 h 0.132292 0.132292 v 0.132292 0.132291 z m 5.820833,0 h -0.132291 v -0.132291 -0.132292 h 0.132291 0.132292 v 0.132292 0.132291 z M 81.892003,85.895044 H 81.759711 V 85.762752 85.63046 h 0.132292 0.132292 v 0.132292 0.132292 z m 4.233334,0 H 85.993045 V 85.762752 85.63046 h 0.132292 0.132291 v 0.132292 0.132292 z m 5.820833,0 H 91.813878 V 85.762752 85.63046 h 0.132292 0.132292 v 0.132292 0.132292 z m -6.085417,-0.529167 h -0.132292 v -0.132292 -0.132291 h 0.132292 0.132292 v 0.132291 0.132292 z m 5.820834,0 h -0.132292 v -0.132292 -0.132291 h 0.132292 0.132291 v 0.132291 0.132292 z M 81.892003,84.83671 h -0.132292 v -0.132291 -0.132292 h 0.132292 0.132292 v 0.132292 0.132291 z m 9.525,0 h -0.132291 v -0.132291 -0.132292 h 0.132291 0.132292 v 0.132292 0.132291 z m -7.96873,-0.529166 h -0.132291 l 0.163521,-0.264584 0.163522,-0.264583 h 0.132291 0.132292 l -0.163522,0.264583 -0.163521,0.264584 z m 2.41248,0 H 85.728461 V 84.175252 84.04296 h 0.132292 0.132292 v 0.132292 0.132292 z M 82.156586,84.04296 h -0.132291 v -0.132291 -0.132292 h 0.132291 0.132292 v 0.132292 0.132291 z m 4.233334,0 h -0.132292 v -0.132291 -0.132292 h 0.132292 0.132292 v 0.132292 0.132291 z m 4.497917,0 h -0.132292 v -0.132291 -0.132292 h 0.132292 0.132291 v 0.132292 0.132291 z m 29.496763,0 h -1.82191 l -0.90517,-1.653646 -0.90518,-1.653646 -3.05195,-5.55625 -3.05195,-5.55625 -1.589,-2.910416 -1.58901,-2.910417 1.10141,-0.0878 1.10141,-0.0878 1.85691,0.170775 1.85691,0.170775 0.49077,0.843068 0.49077,0.843068 0.93502,1.719792 0.93502,1.719792 1.37749,2.513541 1.37749,2.513542 2.28513,4.153913 2.28512,4.153914 v 0.548989 0.548989 l -0.67868,0.258035 -0.67869,0.258035 z M 84.273253,83.778377 h -0.132292 v -0.132292 -0.132291 h 0.132292 0.132292 v 0.132291 0.132292 z m 3.417535,-0.0209 -0.507118,-0.02088 0.347265,-0.138964 0.347266,-0.138965 0.159853,0.159851 0.159852,0.159853 -0.507118,-0.0209 z M 115.49409,83.513794 H 115.3618 V 83.381502 83.24921 h 0.13229 0.13229 v 0.132292 0.132292 z M 82.42117,83.24921 h -0.132292 v -0.132292 -0.132291 h 0.132292 0.132291 v 0.132291 0.132292 z m 2.910416,0 h -0.132291 v -0.132292 -0.132291 h 0.132291 0.132292 v 0.132291 0.132292 z m 24.473964,-0.07928 h -1.45521 l 0.7276,-0.110223 0.72761,-0.110222 0.7276,0.110222 0.7276,0.110223 z m -7.27605,-0.260972 -1.32291,-0.0036 0.73124,-0.110575 0.73124,-0.110574 0.59168,0.114186 0.59167,0.114186 -1.32292,-0.0036 z m 12.96459,0.07567 h -0.13229 v -0.132292 -0.132292 h 0.13229 0.13229 v 0.132292 0.132292 z M 82.685753,82.720043 H 82.553461 V 82.587752 82.45546 h 0.132292 0.132292 v 0.132292 0.132291 z m 4.233334,0 H 86.786795 V 82.587752 82.45546 h 0.132292 0.132291 v 0.132292 0.132291 z m 8.334375,-0.07928 h -1.455209 l 0.727604,-0.110222 0.727605,-0.110223 0.727604,0.110223 0.727604,0.110222 z M 89.168045,82.41369 h -0.661458 l 0.330729,-0.133453 0.330729,-0.133453 0.330729,0.133453 0.330729,0.133453 z m 26.061455,0.04178 h -0.13229 v -0.132292 -0.132291 h 0.13229 0.1323 v 0.132291 0.132292 z M 82.950336,82.190877 h -0.132291 v -0.132292 -0.132292 h 0.132291 0.132292 v 0.132292 0.132292 z m 42.232094,0 h -0.20659 l -1.46623,-2.711979 -1.46623,-2.71198 -0.79179,-1.455208 -0.79179,-1.455208 -2.68129,-4.863037 -2.6813,-4.863037 v -0.0979 -0.0979 h 1.81516 1.81515 l 1.18289,0.162133 1.18288,0.162133 0.89527,1.623805 0.89527,1.623805 1.14644,2.116666 1.14643,2.116667 0.84724,1.719792 0.84723,1.719791 v 2.533314 2.533313 l -0.74107,0.972416 -0.74107,0.972416 z m -10.21751,-0.264584 h -0.13229 V 81.794002 81.66171 h 0.13229 0.13229 v 0.132292 0.132291 z M 83.479503,81.397127 h -0.132292 v -0.132292 -0.132292 h 0.132292 0.132292 v 0.132292 0.132292 z m 31.220837,0 h -0.13229 v -0.132292 -0.132292 h 0.13229 0.13229 v 0.132292 0.132292 z m -0.26459,-0.529167 h -0.13229 v -0.132292 -0.132291 h 0.13229 0.1323 v 0.132291 0.132292 z m -0.52916,-0.79375 h -0.13229 v -0.132292 -0.132291 h 0.13229 0.13229 v 0.132291 0.132292 z M 113.642,79.545043 h -0.13229 V 79.412752 79.28046 h 0.13229 0.1323 v 0.132292 0.132291 z M 85.56494,79.28046 h -0.132292 l 0.163522,-0.264583 0.163521,-0.264584 h 0.132292 0.132292 l -0.163522,0.264584 -0.163521,0.264583 z m -1.85325,-0.264583 h -0.0999 v -0.236276 -0.236276 l 0.434299,-0.166656 0.434298,-0.166656 -0.334404,0.402932 -0.334403,0.402932 z m 29.66573,0 h -0.13229 v -0.132292 -0.132292 h 0.13229 0.13229 v 0.132292 0.132292 z M 86.35869,78.751293 h -0.132292 l 0.163522,-0.264583 0.163521,-0.264583 h 0.132292 0.132292 l -0.163522,0.264583 -0.163521,0.264583 z m 26.75415,-0.264583 h -0.13229 v -0.132292 -0.132291 h 0.13229 0.13229 v 0.132291 0.132292 z m -0.52917,-0.529167 h -0.13229 V 77.825252 77.69296 h 0.13229 0.13229 v 0.132292 0.132291 z m -28.575,-0.264583 h -0.132292 v -0.132292 -0.132291 h 0.132292 0.132291 v 0.132291 0.132292 z m 1.058333,0 h -0.132292 v -0.132292 -0.132291 h 0.132292 0.132292 v 0.132291 0.132292 z M 107.95346,77.6209 h -1.19062 l 0.59531,-0.114662 0.59531,-0.114662 0.59531,0.114662 0.59532,0.114662 z M 89.56492,77.42838 h -0.132292 v -0.132292 -0.132292 h 0.132292 0.132292 v 0.132292 0.132292 z m 12.56771,-0.07206 H 100.942 l 0.59532,-0.114662 0.59531,-0.114663 0.59531,0.114663 0.59531,0.114662 z M 85.59617,77.163793 H 85.463878 V 77.031502 76.89921 h 0.132292 0.132291 v 0.132292 0.132291 z m 5.423958,0 h -0.352777 l 0.176388,-0.176389 0.176389,-0.176388 0.176389,0.176388 0.176389,0.176389 z m 5.423959,-0.06672 -1.058334,-0.0053 0.598398,-0.115067 0.598397,-0.115066 0.459936,0.120406 0.459936,0.120406 z m -10.31875,-0.19786 H 85.993045 V 76.766921 76.63463 h 0.132292 0.132291 v 0.132291 0.132292 z m 0.79375,-0.529167 H 86.786795 V 76.237752 76.10546 h 0.132292 0.132291 v 0.132292 0.132291 z M 84.537836,76.10546 h -0.132291 v -0.132292 -0.132291 h 0.132291 0.132292 v 0.132291 0.132292 z m 3.175001,0 h -0.132292 v -0.132292 -0.132291 h 0.132292 0.132291 v 0.132291 0.132292 z m 20.769793,-0.07929 h -1.45521 l 0.7276,-0.110223 0.72761,-0.110223 0.7276,0.110223 0.72761,0.110223 z m 3.30729,0.07929 h -0.13229 v -0.132292 -0.132291 h 0.13229 0.13229 v 0.132291 0.132292 z M 88.506587,75.840877 h -0.132292 v -0.132292 -0.132292 h 0.132292 0.132291 v 0.132292 0.132292 z m 12.567713,-0.07929 h -1.455213 l 0.727603,-0.110223 0.72761,-0.110223 0.7276,0.110223 0.7276,0.110223 z M 84.80242,75.576293 H 84.670128 V 75.444002 75.31171 h 0.132292 0.132291 v 0.132292 0.132291 z m 5.005035,-0.02089 -0.507118,-0.02089 0.347265,-0.138964 0.347266,-0.138964 0.159852,0.159852 0.159853,0.159852 z m 4.12309,-0.0584 h -1.455208 l 0.727604,-0.110223 0.727604,-0.110223 0.727604,0.110223 0.727604,0.110223 z m 17.610405,0.07929 h -0.11668 l -0.18878,-0.305463 -0.18879,-0.305464 0.30546,0.188787 0.30547,0.188787 v 0.116677 0.116676 z M 85.067003,75.047127 h -0.132292 v -0.132292 -0.132292 h 0.132292 0.132292 v 0.132292 0.132292 z m 25.929167,-0.264584 h -0.13229 V 74.650252 74.51796 h 0.13229 0.13229 v 0.132292 0.132291 z M 85.56494,74.253377 h -0.132292 l 0.163522,-0.264584 0.163521,-0.264583 h 0.132292 0.132292 l -0.163522,0.264583 -0.163521,0.264584 z m 25.16665,0 h -0.13229 v -0.132292 -0.132292 h 0.13229 0.13229 v 0.132292 0.132292 z M 110.467,73.72421 h -0.13229 v -0.132292 -0.132291 h 0.13229 0.1323 v 0.132291 0.132292 z m -0.26458,-0.529167 h -0.13229 V 73.062752 72.93046 h 0.13229 0.13229 v 0.132292 0.132291 z m -0.52917,-0.79375 h -0.13229 V 72.269002 72.13671 h 0.13229 0.1323 v 0.132292 0.132291 z M 87.712837,72.13671 h -0.132292 v -0.132292 -0.132291 h 0.132292 0.132291 v 0.132291 0.132292 z m -1.859889,-0.264583 h -0.03629 v -0.396875 -0.396875 l 0.135996,0.135996 0.135996,0.135996 0.812094,-0.730754 0.812095,-0.730754 -0.911799,0.991633 -0.911798,0.991633 z m 23.555722,0 h -0.13229 v -0.132292 -0.132292 h 0.13229 0.13229 v 0.132292 0.132292 z M 88.506587,71.607543 H 88.374295 V 71.475252 71.34296 h 0.132292 0.132291 v 0.132292 0.132291 z m 0.529166,-0.264583 h -0.132291 v -0.132292 -0.132291 h 0.132291 0.132292 v 0.132291 0.132292 z m 20.108337,0 h -0.13229 v -0.132292 -0.132291 h 0.13229 0.13229 v 0.132291 0.132292 z M 89.56492,71.078377 h -0.132292 v -0.132292 -0.132292 h 0.132292 0.132292 v 0.132292 0.132292 z m 0.79375,-0.264584 H 90.226378 V 70.681502 70.54921 h 0.132292 0.132292 v 0.132292 0.132291 z m 18.52083,0 h -0.13229 V 70.681502 70.54921 h 0.13229 0.1323 v 0.132292 0.132291 z M 91.15242,70.54921 h -0.132292 v -0.132292 -0.132291 h 0.132292 0.132292 v 0.132291 0.132292 z m 15.08125,-0.06672 -1.05833,-0.0053 0.59839,-0.115066 0.5984,-0.115067 0.45994,0.120406 0.45993,0.120406 z M 86.125337,70.28463 h -0.132292 v -0.132292 -0.132292 h 0.132292 0.132291 v 0.132292 0.132292 z m 6.085416,0 h -0.132291 v -0.132292 -0.132292 h 0.132291 0.132292 v 0.132292 0.132292 z m 8.863547,-0.07206 h -1.19063 l 0.59531,-0.114663 0.59532,-0.114662 0.59531,0.114662 0.59531,0.114663 z m -5.95313,-0.279341 -1.852083,0.0021 0.853994,-0.106272 0.853995,-0.106272 0.998089,0.104138 0.998088,0.104138 -1.852083,0.0021 z M 88.242003,69.75546 h -0.132291 v -0.132292 -0.132291 h 0.132291 0.132292 v 0.132291 0.132292 z m 0.529167,-0.264583 h -0.132292 v -0.132292 -0.132292 h 0.132292 0.132292 v 0.132292 0.132292 z m 0.529167,-0.264584 H 89.168045 V 69.094002 68.96171 h 0.132292 0.132291 v 0.132292 0.132291 z M 86.654503,68.96171 h -0.132291 v -0.132292 -0.132291 h 0.132291 0.132292 v 0.132291 0.132292 z m 3.439584,0 h -0.132292 v -0.132292 -0.132291 h 0.132292 0.132291 v 0.132291 0.132292 z m 16.536463,-0.07206 h -1.19063 l 0.59531,-0.114662 0.59532,-0.114662 0.59531,0.114662 0.59531,0.114662 z M 91.020128,68.69713 h -0.352777 l 0.176388,-0.176389 0.176389,-0.176389 0.176389,0.176389 0.176389,0.176389 z m 8.863542,-0.07567 -1.322917,-0.0036 0.731243,-0.110573 0.731244,-0.110574 0.59167,0.114185 0.59168,0.114186 z M 86.919087,68.432543 H 86.786795 V 68.300252 68.16796 h 0.132292 0.132291 v 0.132292 0.132291 z m 6.614583,-0.06672 -1.058333,-0.0053 0.598397,-0.115067 0.598397,-0.115066 0.459936,0.120406 0.459936,0.120405 z m 14.02292,0.06672 H 107.4243 V 68.300252 68.16796 h 0.13229 0.13229 v 0.132292 0.132291 z M 107.292,67.903377 h -0.13229 v -0.132292 -0.132292 h 0.13229 0.1323 v 0.132292 0.132292 z m -0.26458,-0.529167 h -0.13229 v -0.132292 -0.132291 h 0.13229 0.13229 v 0.132291 0.132292 z M 87.681607,67.109627 h -0.132292 l 0.163522,-0.264584 0.163521,-0.264583 h 0.132292 0.132291 l -0.163521,0.264583 -0.163522,0.264584 z M 106.49825,66.58046 h -0.13229 v -0.132292 -0.132291 h 0.13229 0.1323 v 0.132291 0.132292 z m -0.26458,-0.529167 h -0.13229 V 65.919002 65.78671 h 0.13229 0.13229 v 0.132292 0.132291 z M 89.26794,65.522127 h -0.09989 v -0.0999 -0.09989 l 0.463021,-0.363126 0.463021,-0.363126 -0.363127,0.463021 -0.363125,0.463021 z m 16.70115,0 h -0.13229 v -0.132292 -0.132292 h 0.13229 0.13229 v 0.132292 0.132292 z M 105.7045,64.99296 h -0.13229 v -0.132292 -0.132291 h 0.13229 0.1323 v 0.132291 0.132292 z M 90.35867,64.728377 h -0.132292 v -0.132292 -0.132292 h 0.132292 0.132292 v 0.132292 0.132292 z m 1.058333,-0.529167 h -0.132291 v -0.132292 -0.132292 h 0.132291 0.132292 v 0.132292 0.132292 z m 13.758337,0 h -0.13229 v -0.132292 -0.132292 h 0.13229 0.13229 v 0.132292 0.132292 z M 91.94617,63.934626 h -0.132292 v -0.132291 -0.132292 h 0.132292 0.132292 v 0.132292 0.132291 z m 0.79375,-0.264583 H 92.607628 V 63.537751 63.40546 h 0.132292 0.132292 v 0.132291 0.132292 z m 12.17083,0 h -0.13229 V 63.537751 63.40546 h 0.13229 0.1323 v 0.132291 0.132292 z M 93.53367,63.40546 h -0.132292 v -0.132292 -0.132292 h 0.132292 0.132292 v 0.132292 0.132292 z m 10.45104,-0.04178 h -0.66146 l 0.33073,-0.133452 0.33073,-0.133452 0.33073,0.133452 0.33073,0.133452 z m -9.150172,-0.243695 -0.507118,-0.02089 0.347266,-0.138964 0.347265,-0.138964 0.159853,0.159852 0.159852,0.159852 z m 5.313712,-0.04583 -1.05833,-0.0053 0.598397,-0.115067 0.598393,-0.115066 0.45994,0.120406 0.45994,0.120406 -1.05834,-0.0053 z"
         id="path91252" /><path
         style="fill:#083348;stroke-width:0.264583"
         d="m 99.1822,103.88266 -2.738113,-0.004 -0.281659,-0.19439 -0.281658,-0.19438 -2.466857,-4.497921 -2.466856,-4.497917 -1.113466,-1.984375 -1.113466,-1.984375 -1.495832,-2.805941 -1.495832,-2.80594 v -0.293606 -0.293603 l 0.515998,-0.276153 0.515998,-0.276154 1.931996,-0.163314 1.931997,-0.163314 5.143414,9.359847 5.143416,9.359846 0.50452,0.85989 0.50451,0.8599 -2.73811,-0.004 z m -7.849754,-0.26053 h -2.884425 l -0.881273,-1.65365 -0.881274,-1.65364 -1.554933,-2.77813 -1.554932,-2.778125 -0.643366,-1.898734 -0.643365,-1.898732 v -0.980988 -0.980985 l 0.303667,-1.013547 0.303666,-1.01355 0.688521,-0.806821 0.688521,-0.806823 3.704167,6.800789 3.704167,6.80079 1.267641,2.331076 1.267642,2.33107 z m -8.468751,-18.948136 -1.187937,1.088758 0.184199,-0.79375 0.184199,-0.79375 0.786382,-1.625174 0.786382,-1.625173 1.022801,-0.924039 1.022801,-0.92404 1.194705,-0.700143 1.194705,-0.700144 1.94673,-0.405905 1.946732,-0.405905 9.922266,0.432002 9.92226,0.432001 0.52917,0.106527 0.52916,0.106526 1.407,2.653713 1.407,2.653712 -0.87783,-0.0021 -0.87783,-0.0021 -10.26092,-0.396793 -10.26091,-0.396783 -3.100545,-0.03181 -3.100545,-0.03181 -1.566019,0.598731 -1.566019,0.598728 z m 1.844052,-6.8884 -0.888424,0.833408 0.193108,-0.926042 0.193108,-0.926042 0.532087,-1.058333 0.532087,-1.058333 0.812483,-1.032224 0.812483,-1.032224 1.202829,-0.76471 1.202829,-0.76471 1.834127,-0.558579 1.834128,-0.558578 5.309622,0.17334 5.309626,0.17334 2.58475,0.17189 2.58475,0.171889 1.45194,2.647901 1.45193,2.647901 -0.0679,0.06264 -0.0679,0.06264 -10.58118,-0.39731 -10.581173,-0.39731 -1.345167,0.301036 -1.345167,0.301035 -1.038241,0.546986 -1.038242,0.546987 z m 2.25854,-7.222656 -1.19788,1.054416 0.274237,-0.997093 0.274236,-0.997093 0.534522,-1.050215 0.534522,-1.050216 0.560331,-0.760385 0.560332,-0.760386 1.190625,-0.865168 1.190625,-0.865167 1.507901,-0.556631 1.507901,-0.55663 1.667099,-0.162062 1.667099,-0.162062 3.704163,0.269254 3.70417,0.269254 0.39688,0.5893 0.39687,0.5893 1.15834,2.106318 1.15833,2.106318 -6.58229,-0.231869 -6.582297,-0.231869 -1.749919,0.05638 -1.74992,0.05638 -1.463999,0.547753 -1.463999,0.547752 z"
         id="path91250" /></g></g></svg>
